<svg xmlns="http://www.w3.org/2000/svg" viewBox="0 0 32 32" width="32" height="32">
  <rect width="32" height="32" rx="4" fill="#ffffff"/>
  <rect x="1" y="1" width="30" height="30" rx="3" fill="none" stroke="#000000" stroke-width="1.5"/>
  <!-- Speech bubble -->
  <path d="M6 7h20a2 2 0 0 1 2 2v12a2 2 0 0 1-2 2H12l-4 4v-4H6a2 2 0 0 1-2-2V9a2 2 0 0 1 2-2z" fill="none" stroke="#000000" stroke-width="1.5"/>
  <!-- Microphone -->
  <rect x="14" y="10" width="4" height="7" rx="2" fill="#000000"/>
  <path d="M12 15v1a4 4 0 0 0 8 0v-1" fill="none" stroke="#000000" stroke-width="1.3"/>
  <line x1="16" y1="20" x2="16" y2="22" stroke="#000000" stroke-width="1.3"/>
</svg>
