<svg xmlns="http://www.w3.org/2000/svg" viewBox="0 0 512 512" width="512" height="512">
  <rect width="512" height="512" rx="64" fill="#ffffff"/>
  <rect x="16" y="16" width="480" height="480" rx="48" fill="none" stroke="#000000" stroke-width="14"/>
  <!-- Speech bubble -->
  <path d="M96 106h320a32 32 0 0 1 32 32v192a32 32 0 0 1-32 32H192l-64 64v-64H96a32 32 0 0 1-32-32V138a32 32 0 0 1 32-32z" fill="none" stroke="#000000" stroke-width="14"/>
  <!-- Microphone -->
  <rect x="218" y="148" width="76" height="118" rx="38" fill="#000000"/>
  <path d="M186 234v16a70 70 0 0 0 140 0v-16" fill="none" stroke="#000000" stroke-width="12"/>
  <line x1="256" y1="320" x2="256" y2="352" stroke="#000000" stroke-width="12"/>
  <line x1="224" y1="352" x2="288" y2="352" stroke="#000000" stroke-width="12"/>
</svg>
