<svg xmlns="http://www.w3.org/2000/svg" viewBox="0 0 192 192" width="192" height="192">
  <rect width="192" height="192" rx="24" fill="#ffffff"/>
  <rect x="6" y="6" width="180" height="180" rx="18" fill="none" stroke="#000000" stroke-width="6"/>
  <!-- Speech bubble -->
  <path d="M36 40h120a12 12 0 0 1 12 12v72a12 12 0 0 1-12 12H72l-24 24v-24H36a12 12 0 0 1-12-12V52a12 12 0 0 1 12-12z" fill="none" stroke="#000000" stroke-width="6"/>
  <!-- Microphone -->
  <rect x="82" y="56" width="28" height="44" rx="14" fill="#000000"/>
  <path d="M70 88v6a26 26 0 0 0 52 0v-6" fill="none" stroke="#000000" stroke-width="5"/>
  <line x1="96" y1="120" x2="96" y2="132" stroke="#000000" stroke-width="5"/>
  <line x1="84" y1="132" x2="108" y2="132" stroke="#000000" stroke-width="5"/>
</svg>
